<mxfile host="www.draw.io" modified="2020-02-02T10:04:45.856Z" agent="Mozilla/5.0 (Macintosh; Intel Mac OS X 10_15_2) AppleWebKit/605.1.15 (KHTML, like Gecko) Version/13.0.4 Safari/605.1.15" etag="GHu10o4vg352qPYxJ29B" version="12.6.2" type="github">
  <diagram id="b_SXDpRQJmuASV-DSi4U" name="第 1 页">
    <mxGraphModel dx="746" dy="555" grid="1" gridSize="10" guides="1" tooltips="1" connect="1" arrows="1" fold="1" page="1" pageScale="1" pageWidth="850" pageHeight="1100" math="0" shadow="0">
      <root>
        <mxCell id="0"/>
        <mxCell id="1" parent="0"/>
        <mxCell id="GqUMdVtCGq94eZb8xEzj-1" value="" style="rounded=0;whiteSpace=wrap;html=1;fillColor=#f5f5f5;strokeColor=#666666;fontColor=#333333;" vertex="1" parent="1">
          <mxGeometry x="10" y="430" width="610" height="510" as="geometry"/>
        </mxCell>
        <mxCell id="GqUMdVtCGq94eZb8xEzj-2" value="1. get offset" style="edgeStyle=orthogonalEdgeStyle;rounded=0;orthogonalLoop=1;jettySize=auto;html=1;exitX=0.25;exitY=0;exitDx=0;exitDy=0;entryX=0.292;entryY=1.1;entryDx=0;entryDy=0;entryPerimeter=0;" edge="1" parent="1" source="GqUMdVtCGq94eZb8xEzj-5" target="GqUMdVtCGq94eZb8xEzj-8">
          <mxGeometry relative="1" as="geometry"/>
        </mxCell>
        <mxCell id="GqUMdVtCGq94eZb8xEzj-3" value="3. getDataByOffsets" style="edgeStyle=orthogonalEdgeStyle;rounded=0;orthogonalLoop=1;jettySize=auto;html=1;entryX=0;entryY=0.5;entryDx=0;entryDy=0;" edge="1" parent="1" source="GqUMdVtCGq94eZb8xEzj-5" target="GqUMdVtCGq94eZb8xEzj-10">
          <mxGeometry relative="1" as="geometry"/>
        </mxCell>
        <mxCell id="GqUMdVtCGq94eZb8xEzj-4" value="5. 开始运行" style="edgeStyle=orthogonalEdgeStyle;rounded=0;orthogonalLoop=1;jettySize=auto;html=1;exitX=0.5;exitY=1;exitDx=0;exitDy=0;entryX=0.575;entryY=-0.04;entryDx=0;entryDy=0;entryPerimeter=0;" edge="1" parent="1" source="GqUMdVtCGq94eZb8xEzj-5" target="GqUMdVtCGq94eZb8xEzj-13">
          <mxGeometry relative="1" as="geometry"/>
        </mxCell>
        <mxCell id="GqUMdVtCGq94eZb8xEzj-5" value="Spark Streaming" style="rounded=1;whiteSpace=wrap;html=1;fillColor=#d5e8d4;strokeColor=#82b366;" vertex="1" parent="1">
          <mxGeometry x="170" y="700" width="180" height="60" as="geometry"/>
        </mxCell>
        <mxCell id="GqUMdVtCGq94eZb8xEzj-6" value="1. spark streaming+kafka0.10" style="text;html=1;strokeColor=none;fillColor=none;align=center;verticalAlign=middle;whiteSpace=wrap;rounded=0;" vertex="1" parent="1">
          <mxGeometry x="10" y="430" width="170" height="20" as="geometry"/>
        </mxCell>
        <mxCell id="GqUMdVtCGq94eZb8xEzj-7" value="2. return offsets" style="edgeStyle=orthogonalEdgeStyle;rounded=0;orthogonalLoop=1;jettySize=auto;html=1;exitX=0.75;exitY=1;exitDx=0;exitDy=0;entryX=0.75;entryY=0;entryDx=0;entryDy=0;" edge="1" parent="1" source="GqUMdVtCGq94eZb8xEzj-8" target="GqUMdVtCGq94eZb8xEzj-5">
          <mxGeometry relative="1" as="geometry"/>
        </mxCell>
        <object label="kafka cluster &amp;nbsp; &amp;nbsp; &amp;nbsp; &amp;nbsp; &amp;nbsp; &amp;nbsp; &amp;nbsp; &amp;nbsp; &amp;nbsp; &amp;nbsp; &amp;nbsp; &amp;nbsp; &amp;nbsp; &amp;nbsp; &amp;nbsp; &amp;nbsp; &amp;nbsp; &amp;nbsp; &amp;nbsp; &amp;nbsp; &amp;nbsp; &amp;nbsp; &amp;nbsp; &amp;nbsp; &amp;nbsp; &amp;nbsp; &amp;nbsp; &amp;nbsp; &amp;nbsp; &amp;nbsp; &amp;nbsp; &amp;nbsp; &amp;nbsp; &amp;nbsp; &amp;nbsp; &amp;nbsp; &amp;nbsp; &amp;nbsp;" id="GqUMdVtCGq94eZb8xEzj-8">
          <mxCell style="rounded=1;whiteSpace=wrap;html=1;fillColor=#fff2cc;strokeColor=#d6b656;" vertex="1" parent="1">
            <mxGeometry x="130" y="560" width="340" height="40" as="geometry"/>
          </mxCell>
        </object>
        <mxCell id="GqUMdVtCGq94eZb8xEzj-9" value="4. return data" style="edgeStyle=orthogonalEdgeStyle;rounded=0;orthogonalLoop=1;jettySize=auto;html=1;exitX=0;exitY=0.75;exitDx=0;exitDy=0;entryX=0.872;entryY=1.017;entryDx=0;entryDy=0;entryPerimeter=0;" edge="1" parent="1" source="GqUMdVtCGq94eZb8xEzj-10" target="GqUMdVtCGq94eZb8xEzj-5">
          <mxGeometry relative="1" as="geometry">
            <mxPoint x="360" y="808" as="targetPoint"/>
            <Array as="points">
              <mxPoint x="327" y="808"/>
            </Array>
          </mxGeometry>
        </mxCell>
        <mxCell id="GqUMdVtCGq94eZb8xEzj-10" value="kafka cluster" style="rounded=1;whiteSpace=wrap;html=1;fillColor=#fff2cc;strokeColor=#d6b656;" vertex="1" parent="1">
          <mxGeometry x="480" y="560" width="70" height="210" as="geometry"/>
        </mxCell>
        <mxCell id="GqUMdVtCGq94eZb8xEzj-12" value="6. 保存运行结果" style="edgeStyle=orthogonalEdgeStyle;rounded=0;orthogonalLoop=1;jettySize=auto;html=1;entryX=-0.033;entryY=0.588;entryDx=0;entryDy=0;entryPerimeter=0;" edge="1" parent="1" source="GqUMdVtCGq94eZb8xEzj-13">
          <mxGeometry relative="1" as="geometry">
            <mxPoint x="478.02" y="867.04" as="targetPoint"/>
          </mxGeometry>
        </mxCell>
        <mxCell id="GqUMdVtCGq94eZb8xEzj-26" value="6. commit offsets" style="edgeStyle=orthogonalEdgeStyle;rounded=0;orthogonalLoop=1;jettySize=auto;html=1;entryX=0;entryY=0.5;entryDx=0;entryDy=0;" edge="1" parent="1" source="GqUMdVtCGq94eZb8xEzj-13" target="GqUMdVtCGq94eZb8xEzj-15">
          <mxGeometry relative="1" as="geometry">
            <Array as="points">
              <mxPoint x="110" y="835"/>
              <mxPoint x="110" y="510"/>
            </Array>
          </mxGeometry>
        </mxCell>
        <mxCell id="GqUMdVtCGq94eZb8xEzj-13" value="程序运行" style="rounded=0;whiteSpace=wrap;html=1;fillColor=#dae8fc;strokeColor=#6c8ebf;" vertex="1" parent="1">
          <mxGeometry x="190" y="810" width="120" height="50" as="geometry"/>
        </mxCell>
        <mxCell id="GqUMdVtCGq94eZb8xEzj-14" value="Hbase" style="shape=cylinder;whiteSpace=wrap;html=1;boundedLbl=1;backgroundOutline=1;fillColor=#f8cecc;strokeColor=#b85450;" vertex="1" parent="1">
          <mxGeometry x="480" y="820" width="60" height="80" as="geometry"/>
        </mxCell>
        <mxCell id="GqUMdVtCGq94eZb8xEzj-15" value="kafka node&lt;br&gt;&lt;br&gt;&lt;br&gt;" style="rounded=1;whiteSpace=wrap;html=1;fillColor=#f5f5f5;strokeColor=#666666;fontColor=#333333;" vertex="1" parent="1">
          <mxGeometry x="130" y="470" width="70" height="80" as="geometry"/>
        </mxCell>
        <mxCell id="GqUMdVtCGq94eZb8xEzj-16" value="leader p" style="rounded=1;whiteSpace=wrap;html=1;fillColor=#e1d5e7;strokeColor=#9673a6;" vertex="1" parent="1">
          <mxGeometry x="140" y="520" width="50" height="20" as="geometry"/>
        </mxCell>
        <mxCell id="GqUMdVtCGq94eZb8xEzj-17" value="kafka node&lt;br&gt;&lt;br&gt;&lt;br&gt;" style="rounded=1;whiteSpace=wrap;html=1;fillColor=#f5f5f5;strokeColor=#666666;fontColor=#333333;" vertex="1" parent="1">
          <mxGeometry x="215" y="470" width="70" height="80" as="geometry"/>
        </mxCell>
        <mxCell id="GqUMdVtCGq94eZb8xEzj-18" value="leader p" style="rounded=1;whiteSpace=wrap;html=1;fillColor=#e1d5e7;strokeColor=#9673a6;" vertex="1" parent="1">
          <mxGeometry x="225" y="520" width="50" height="20" as="geometry"/>
        </mxCell>
        <mxCell id="GqUMdVtCGq94eZb8xEzj-19" value="kafka node&lt;br&gt;&lt;br&gt;&lt;br&gt;" style="rounded=1;whiteSpace=wrap;html=1;fillColor=#f5f5f5;strokeColor=#666666;fontColor=#333333;" vertex="1" parent="1">
          <mxGeometry x="300" y="470" width="70" height="80" as="geometry"/>
        </mxCell>
        <mxCell id="GqUMdVtCGq94eZb8xEzj-20" value="leader p" style="rounded=1;whiteSpace=wrap;html=1;fillColor=#e1d5e7;strokeColor=#9673a6;" vertex="1" parent="1">
          <mxGeometry x="310" y="520" width="50" height="20" as="geometry"/>
        </mxCell>
        <mxCell id="GqUMdVtCGq94eZb8xEzj-21" value="kafka node&lt;br&gt;&lt;br&gt;&lt;br&gt;" style="rounded=1;whiteSpace=wrap;html=1;fillColor=#f5f5f5;strokeColor=#666666;fontColor=#333333;" vertex="1" parent="1">
          <mxGeometry x="390" y="470" width="70" height="80" as="geometry"/>
        </mxCell>
        <mxCell id="GqUMdVtCGq94eZb8xEzj-22" value="leader p" style="rounded=1;whiteSpace=wrap;html=1;fillColor=#e1d5e7;strokeColor=#9673a6;" vertex="1" parent="1">
          <mxGeometry x="400" y="520" width="50" height="20" as="geometry"/>
        </mxCell>
        <mxCell id="GqUMdVtCGq94eZb8xEzj-23" value="等等" style="text;html=1;strokeColor=none;fillColor=none;align=center;verticalAlign=middle;whiteSpace=wrap;rounded=0;" vertex="1" parent="1">
          <mxGeometry x="495" y="500" width="40" height="20" as="geometry"/>
        </mxCell>
        <mxCell id="GqUMdVtCGq94eZb8xEzj-24" value="" style="edgeStyle=orthogonalEdgeStyle;rounded=0;orthogonalLoop=1;jettySize=auto;html=1;" edge="1" parent="1" source="GqUMdVtCGq94eZb8xEzj-21" target="GqUMdVtCGq94eZb8xEzj-23">
          <mxGeometry relative="1" as="geometry"/>
        </mxCell>
        <mxCell id="GqUMdVtCGq94eZb8xEzj-27" style="rounded=0;orthogonalLoop=1;jettySize=auto;html=1;entryX=0.55;entryY=0.95;entryDx=0;entryDy=0;entryPerimeter=0;" edge="1" parent="1" source="GqUMdVtCGq94eZb8xEzj-25" target="GqUMdVtCGq94eZb8xEzj-28">
          <mxGeometry relative="1" as="geometry"/>
        </mxCell>
        <mxCell id="GqUMdVtCGq94eZb8xEzj-25" value="_consumer_offses(50个)" style="rounded=1;whiteSpace=wrap;html=1;fillColor=#e1d5e7;strokeColor=#9673a6;" vertex="1" parent="1">
          <mxGeometry x="310" y="570" width="150" height="20" as="geometry"/>
        </mxCell>
        <mxCell id="GqUMdVtCGq94eZb8xEzj-28" value="&lt;font style=&quot;font-size: 10px&quot;&gt;存储偏移量的分区可以手动设置，如果有1000个分区，可设置为1000个&lt;/font&gt;" style="ellipse;shape=cloud;whiteSpace=wrap;html=1;fillColor=#f5f5f5;strokeColor=#666666;fontColor=#333333;" vertex="1" parent="1">
          <mxGeometry x="490" y="400" width="190" height="100" as="geometry"/>
        </mxCell>
      </root>
    </mxGraphModel>
  </diagram>
</mxfile>
